<?xml version="1.0" encoding="UTF-8"?>
<svg id="_レイヤー_2" data-name="レイヤー 2" xmlns="http://www.w3.org/2000/svg" viewBox="0 0 586.46 94.78">
  <defs>
    <style>
      .cls-1 {
        fill: #d97706;
      }
    </style>
  </defs>
  <g id="_レイヤー_1-2" data-name="レイヤー 1">
    <g>
      <g>
        <path class="cls-1" d="M165.76,84.92h-8v-32h-36v32h-9V14.92h9v31h36V14.92h8v70Z"/>
        <path class="cls-1" d="M214.76,84.92h-8v-8h-.29c-3.52,6.13-8.71,9.2-15.55,9.2-5.04,0-8.98-1.35-11.82-4.05-2.85-2.7-4.27-6.28-4.27-10.75,0-9.57,5.56-15.13,16.69-16.7l15.16-2.15c0-8.7-3.47-13.05-10.42-13.05-6.09,0-11.58,2.1-16.49,6.3v-8.4c4.97-3.2,10.7-4.8,17.18-4.8,11.88,0,17.82,6.37,17.82,19.1v33.3ZM206.76,59.31l-12.06,1.66c-3.71.52-6.51,1.44-8.4,2.76s-2.83,3.65-2.83,7.01c0,2.44.87,4.44,2.61,5.98,1.74,1.55,4.06,2.32,6.96,2.32,3.97,0,7.25-1.39,9.84-4.17s3.88-6.31,3.88-10.57v-4.98Z"/>
        <path class="cls-1" d="M253.76,42.79c-1.39-1.04-3.41-1.56-6.03-1.56-3.41,0-6.25,1.56-8.54,4.69s-3.43,7.39-3.43,12.8v26.21h-8v-50h8v10h.19c1.14-3.41,2.87-6.07,5.21-7.99,2.34-1.91,4.95-2.87,7.83-2.87,2.08,0,3.67.22,4.77.66v8.06Z"/>
        <path class="cls-1" d="M300.76,84.92h-8v-8h-.19c-3.27,6.04-8.34,9.06-15.2,9.06-11.74,0-17.61-7.08-17.61-21.24v-29.82h7v28.61c0,10.55,4.11,15.82,12.33,15.82,3.98,0,7.25-1.44,9.82-4.32,2.57-2.88,3.85-6.65,3.85-11.3v-28.81h8v50Z"/>
        <path class="cls-1" d="M314.76,82.18v-9.79c1.12.99,2.46,1.88,4.03,2.67,1.57.79,3.21,1.46,4.94,2s3.47.96,5.22,1.26,3.36.44,4.85.44c5.11,0,8.92-.95,11.45-2.84,2.52-1.89,3.78-4.62,3.78-8.18,0-1.91-.42-3.58-1.26-4.99-.84-1.42-2-2.71-3.49-3.88-1.48-1.17-3.24-2.29-5.27-3.36-2.03-1.07-4.21-2.2-6.55-3.39-2.47-1.25-4.78-2.52-6.92-3.81s-4-2.7-5.59-4.25c-1.58-1.55-2.83-3.3-3.73-5.27-.91-1.96-1.36-4.26-1.36-6.9,0-3.23.71-6.04,2.13-8.43,1.42-2.39,3.28-4.36,5.59-5.91,2.31-1.55,4.94-2.7,7.89-3.46,2.95-.76,5.96-1.14,9.02-1.14,6.99,0,12.08.84,15.28,2.52v9.34c-4.19-2.9-9.56-4.35-16.12-4.35-1.81,0-3.63.19-5.44.57-1.81.38-3.43,1-4.85,1.85-1.42.86-2.57,1.96-3.46,3.31-.89,1.35-1.33,3-1.33,4.94,0,1.81.34,3.38,1.01,4.7.68,1.32,1.67,2.52,2.99,3.61s2.93,2.14,4.82,3.16c1.89,1.02,4.08,2.14,6.55,3.36,2.54,1.25,4.94,2.57,7.22,3.96s4.27,2.92,5.98,4.6,3.07,3.54,4.08,5.59c1,2.04,1.51,4.38,1.51,7.02,0,3.49-.68,6.45-2.05,8.88-1.37,2.42-3.21,4.39-5.54,5.91-2.32,1.52-5,2.61-8.03,3.29s-6.23,1.01-9.59,1.01c-1.12,0-2.5-.09-4.15-.27-1.65-.18-3.33-.44-5.04-.79s-3.34-.77-4.87-1.29c-1.53-.51-2.76-1.08-3.68-1.71Z"/>
        <path class="cls-1" d="M390.76,84.23c-1.92,1.06-4.46,1.59-7.61,1.59-8.92,0-13.39-4.98-13.39-14.93v-28.97h-9v-7h9v-12.21l8-2.59v14.79h13v7h-13v28.85c0,3.43.59,5.88,1.76,7.35,1.18,1.47,3.12,2.2,5.84,2.2,2.08,0,3.88-.57,5.39-1.7v5.61Z"/>
        <path class="cls-1" d="M441.76,84.92h-9v-8h-.19c-3.27,6.04-8.34,9.06-15.2,9.06-11.74,0-17.61-7.08-17.61-21.24v-29.82h8v28.61c0,10.55,4.11,15.82,12.33,15.82,3.98,0,7.25-1.44,9.82-4.32,2.57-2.88,3.85-6.65,3.85-11.3l-1-28.81h9v50Z"/>
        <path class="cls-1" d="M499.76,84.92h-8v-9h-.2c-3.76,6.53-9.56,9.79-17.4,9.79-6.36,0-11.44-2.27-15.25-6.8-3.81-4.53-5.71-10.7-5.71-18.51,0-8.37,2.11-15.08,6.33-20.12s9.84-7.56,16.86-7.56,12.01,2.74,15.18,8.21h.2V10.92h8v74ZM491.76,62v-7.37c0-4.04-1.33-7.45-4-10.25-2.67-2.8-6.05-4.2-10.16-4.2-4.88,0-8.72,1.79-11.52,5.37-2.8,3.58-4.2,8.53-4.2,14.84,0,5.76,1.34,10.31,4.03,13.65,2.69,3.34,6.29,5,10.82,5s8.08-1.61,10.86-4.83,4.17-7.29,4.17-12.21Z"/>
        <path class="cls-1" d="M520.54,21.91c-1.43,0-2.65-.49-3.66-1.46s-1.51-2.21-1.51-3.71.5-2.74,1.51-3.74c1.01-.99,2.23-1.49,3.66-1.49s2.71.5,3.74,1.49c1.03.99,1.54,2.24,1.54,3.74s-.51,2.65-1.54,3.66c-1.03,1.01-2.27,1.51-3.74,1.51ZM524.76,84.92h-8v-50h8v50Z"/>
        <path class="cls-1" d="M561.55,85.78c-7.39,0-13.29-2.33-17.7-7.01-4.41-4.67-6.62-10.86-6.62-18.58,0-8.4,2.29-14.96,6.88-19.68,4.59-4.72,10.79-7.08,18.6-7.08s13.27,2.29,17.46,6.88c4.18,4.59,6.27,10.95,6.27,19.09s-2.25,14.36-6.76,19.17c-4.51,4.8-10.55,7.2-18.14,7.2ZM562.14,40.17c-5.14,0-9.21,1.75-12.21,5.25-3,3.5-4.49,8.33-4.49,14.48s1.51,10.6,4.54,14.01,7.08,5.13,12.16,5.13,9.16-1.68,11.94-5.03c2.78-3.35,4.17-8.12,4.17-14.31s-1.39-11.07-4.17-14.45c-2.78-3.38-6.76-5.08-11.94-5.08Z"/>
      </g>
      <g>
        <path class="cls-1" d="M47.39,94.78c-12.66,0-24.56-4.93-33.51-13.88S0,60.05,0,47.39,4.93,22.83,13.88,13.88,34.73,0,47.39,0s24.56,4.93,33.51,13.88,13.88,20.85,13.88,33.51-4.93,24.56-13.88,33.51-20.85,13.88-33.51,13.88ZM47.39,7.27C25.27,7.27,7.27,25.27,7.27,47.39s18,40.12,40.12,40.12,40.12-18,40.12-40.12S69.51,7.27,47.39,7.27Z"/>
        <g>
          <path class="cls-1" d="M57.76,50.92h-25v21.29c0,.5-.17.9-.5,1.22-.33.32-.74.48-1.21.48h-3.64c-.48,0-.87-.16-1.18-.48-.31-.32-.46-.73-.46-1.22V23.68c0-.54.15-.96.46-1.28.31-.32.7-.48,1.18-.48h3.64c.52,0,.94.16,1.25.48.31.32.46.75.46,1.28v20.24h26"/>
          <path class="cls-1" d="M71.15,53.35c-2.95-9.89-27.93-10.14-16.36-24.22,1.54-1.19,2.64-1.54,4.75-1.36,4.27.21,7.36,3.61,7.24,7.56-.02,2.07,3.9,1.33,5.26,1.6,2.59-.3.89-5.83.31-7.51-5.1-12.86-25.02-9-25.57,4.76-1.64,11.8,7.4,13.52,16.01,18.72,6.97,3.81,3.23,15.18-5.05,14.32-13.09-.54-4.86-9.67-10.75-9.56-1.44.03-3.82-.94-4.08,1.22-.21,22.97,35.16,16.71,28.25-5.54Z"/>
        </g>
      </g>
    </g>
  </g>
</svg>