<?xml version="1.0" encoding="UTF-8"?>
<svg id="_レイヤー_2" data-name="レイヤー 2" xmlns="http://www.w3.org/2000/svg" viewBox="0 0 172.73 172.73">
  <defs>
    <style>
      .cls-1 {
        fill: #d97706;
      }
    </style>
  </defs>
  <g id="_レイヤー_1-2" data-name="レイヤー 1">
    <g>
      <path class="cls-1" d="M86.36,172.73c-23.07,0-44.76-8.98-61.07-25.3S0,109.43,0,86.36,8.98,41.61,25.3,25.3C41.61,8.98,63.3,0,86.36,0s44.76,8.98,61.07,25.3c16.31,16.31,25.3,38,25.3,61.07s-8.98,44.76-25.3,61.07-38,25.3-61.07,25.3ZM86.36,13.25C46.05,13.25,13.25,46.05,13.25,86.36s32.8,73.12,73.12,73.12,73.12-32.8,73.12-73.12S126.68,13.25,86.36,13.25Z"/>
      <g>
        <path class="cls-1" d="M106.1,91.81h-46.35v39.09c0,.91-.29,1.66-.88,2.25-.58.59-1.29.89-2.13.89h-6.38c-.83,0-1.52-.29-2.06-.89-.54-.59-.81-1.34-.81-2.25V41.97c0-1,.27-1.79.81-2.38.54-.59,1.23-.89,2.06-.89h6.38c.92,0,1.65.3,2.19.89.54.59.81,1.39.81,2.38v37.59h46.54"/>
        <path class="cls-1" d="M129.67,97.23c-5.37-18.02-50.9-18.49-29.82-44.13,2.8-2.17,4.81-2.81,8.65-2.48,7.79.38,13.4,6.57,13.19,13.79-.04,3.77,7.1,2.42,9.59,2.91,4.72-.55,1.62-10.63.56-13.69-9.29-23.44-45.6-16.41-46.6,8.67-2.99,21.51,13.49,24.65,29.18,34.12,12.7,6.95,5.88,27.66-9.21,26.1-23.86-.99-8.86-17.62-19.6-17.42-2.62.05-6.97-1.72-7.43,2.22-.38,41.86,64.07,30.45,51.48-10.09Z"/>
      </g>
    </g>
  </g>
</svg>