<?xml version="1.0" encoding="UTF-8"?>
<svg id="_レイヤー_2" data-name="レイヤー 2" xmlns="http://www.w3.org/2000/svg" viewBox="0 0 251.22 227.94">
  <defs>
    <style>
      .cls-1 {
        fill: #d97706;
      }
    </style>
  </defs>
  <g id="_レイヤー_1-2" data-name="レイヤー 1">
    <g>
      <path class="cls-1" d="M29.06,227.35h-7.59v-13.67H7.56v13.67H0v-33.57h7.56v13.39h13.91v-13.39h7.59v33.57Z"/>
      <path class="cls-1" d="M55.96,227.35h-7v-3.44h-.09c-1.61,2.68-3.99,4.03-7.14,4.03-2.33,0-4.16-.66-5.49-1.98-1.33-1.32-2-3.08-2-5.28,0-4.65,2.75-7.34,8.26-8.05l6.51-.87c0-2.62-1.42-3.93-4.26-3.93s-5.57.85-8.15,2.55v-5.57c1.03-.53,2.44-1,4.23-1.4,1.79-.41,3.41-.61,4.88-.61,6.84,0,10.25,3.41,10.25,10.23v14.33ZM49,217.61v-1.62l-4.35.56c-2.4.31-3.61,1.4-3.61,3.25,0,.84.29,1.53.88,2.07.58.54,1.38.81,2.38.81,1.39,0,2.52-.48,3.39-1.44.87-.96,1.31-2.17,1.31-3.64Z"/>
      <path class="cls-1" d="M77.45,210.05c-.89-.48-1.93-.73-3.11-.73-1.61,0-2.86.59-3.77,1.77-.91,1.18-1.36,2.78-1.36,4.81v11.45h-7.4v-23.97h7.4v4.45h.09c1.17-3.25,3.28-4.87,6.32-4.87.78,0,1.39.09,1.83.28v6.81Z"/>
      <path class="cls-1" d="M103.81,227.35h-7.38v-3.65h-.12c-1.83,2.83-4.27,4.24-7.33,4.24-5.56,0-8.33-3.36-8.33-10.09v-14.47h7.38v13.81c0,3.39,1.34,5.08,4.03,5.08,1.33,0,2.39-.46,3.18-1.39s1.19-2.19,1.19-3.78v-13.72h7.38v23.97Z"/>
      <path class="cls-1" d="M109.22,226.06v-7.49c1.36,1.14,2.83,1.99,4.43,2.56,1.59.57,3.2.85,4.82.85.95,0,1.78-.09,2.49-.26.71-.17,1.3-.41,1.78-.71.48-.3.83-.66,1.07-1.08.23-.41.35-.86.35-1.35,0-.66-.19-1.24-.56-1.76-.37-.51-.89-.99-1.53-1.43-.65-.44-1.42-.86-2.31-1.26-.89-.41-1.85-.82-2.88-1.24-2.62-1.09-4.58-2.43-5.87-4-1.29-1.58-1.93-3.48-1.93-5.71,0-1.75.35-3.25,1.05-4.51.7-1.26,1.66-2.29,2.87-3.1,1.21-.81,2.61-1.41,4.2-1.79s3.28-.57,5.06-.57,3.3.11,4.65.32,2.59.54,3.73.97v7c-.56-.39-1.17-.73-1.84-1.03s-1.35-.54-2.05-.74c-.7-.2-1.4-.34-2.1-.43-.69-.09-1.35-.14-1.98-.14-.86,0-1.64.08-2.34.25-.7.16-1.3.39-1.78.69-.48.3-.86.65-1.12,1.07-.27.41-.4.88-.4,1.39,0,.56.15,1.06.44,1.51.3.44.72.87,1.26,1.26.55.4,1.21.79,1.99,1.17.78.38,1.66.78,2.65,1.18,1.34.56,2.55,1.16,3.62,1.79,1.07.63,1.99,1.35,2.75,2.14s1.35,1.71,1.76,2.73.61,2.21.61,3.57c0,1.87-.35,3.45-1.07,4.72-.71,1.27-1.67,2.3-2.89,3.09-1.22.79-2.63,1.35-4.25,1.7-1.62.34-3.32.51-5.12.51s-3.59-.16-5.26-.47c-1.66-.31-3.1-.78-4.32-1.41Z"/>
      <path class="cls-1" d="M150.22,227.07c-1.09.58-2.74.87-4.94.87-5.21,0-7.82-2.71-7.82-8.12v-10.98h-3.89v-5.46h3.89v-5.17l7.38-2.11v7.28h5.38v5.46h-5.38v9.69c0,2.5.99,3.75,2.97,3.75.78,0,1.58-.23,2.41-.68v5.48Z"/>
      <path class="cls-1" d="M177.17,227.35h-7.38v-3.65h-.12c-1.83,2.83-4.27,4.24-7.33,4.24-5.56,0-8.33-3.36-8.33-10.09v-14.47h7.38v13.81c0,3.39,1.34,5.08,4.03,5.08,1.33,0,2.39-.46,3.18-1.39s1.19-2.19,1.19-3.78v-13.72h7.38v23.97Z"/>
      <path class="cls-1" d="M206.85,227.35h-7.4v-3.3h-.09c-1.69,2.59-4.16,3.89-7.42,3.89-3,0-5.41-1.06-7.23-3.17-1.83-2.12-2.74-5.07-2.74-8.86s1.01-7.14,3.02-9.53c2.01-2.39,4.65-3.58,7.91-3.58,3.09,0,5.24,1.11,6.46,3.33h.09v-14.26h7.4v35.49ZM199.6,215.69v-1.8c0-1.56-.45-2.86-1.36-3.89-.91-1.03-2.08-1.55-3.54-1.55-1.64,0-2.92.64-3.84,1.93-.92,1.29-1.38,3.06-1.38,5.3,0,2.11.44,3.73,1.33,4.87.89,1.14,2.12,1.71,3.7,1.71s2.72-.6,3.66-1.8c.94-1.2,1.42-2.79,1.42-4.78Z"/>
      <path class="cls-1" d="M216.83,199.58c-1.25,0-2.27-.37-3.07-1.11s-1.19-1.65-1.19-2.73.4-2.01,1.19-2.72c.8-.7,1.82-1.05,3.07-1.05s2.29.35,3.08,1.05c.79.7,1.18,1.61,1.18,2.72s-.39,2.04-1.18,2.76-1.81,1.08-3.08,1.08ZM220.48,227.35h-7.4v-23.97h7.4v23.97Z"/>
      <path class="cls-1" d="M238.13,227.94c-4,0-7.14-1.12-9.42-3.36-2.29-2.24-3.43-5.28-3.43-9.12s1.19-7.07,3.56-9.31c2.37-2.24,5.58-3.36,9.62-3.36s7.1,1.12,9.37,3.36c2.26,2.24,3.39,5.2,3.39,8.88,0,3.98-1.17,7.13-3.5,9.44-2.33,2.31-5.53,3.46-9.59,3.46ZM238.32,208.46c-1.75,0-3.11.6-4.07,1.8-.97,1.2-1.45,2.9-1.45,5.1,0,4.6,1.86,6.91,5.57,6.91s5.32-2.36,5.32-7.09c0-4.48-1.79-6.72-5.36-6.72Z"/>
    </g>
    <g>
      <path class="cls-1" d="M127.18,172.73c-23.07,0-44.76-8.98-61.07-25.3s-25.3-38-25.3-61.07,8.98-44.76,25.3-61.07C82.43,8.98,104.12,0,127.18,0s44.76,8.98,61.07,25.3c16.31,16.31,25.3,38,25.3,61.07s-8.98,44.76-25.3,61.07-38,25.3-61.07,25.3ZM127.18,13.25c-40.32,0-73.12,32.8-73.12,73.12s32.8,73.12,73.12,73.12,73.12-32.8,73.12-73.12S167.5,13.25,127.18,13.25Z"/>
      <g>
        <path class="cls-1" d="M146.92,91.81h-46.35v39.09c0,.91-.29,1.66-.88,2.25-.58.59-1.29.89-2.13.89h-6.38c-.83,0-1.52-.29-2.06-.89-.54-.59-.81-1.34-.81-2.25V41.97c0-1,.27-1.79.81-2.38.54-.59,1.23-.89,2.06-.89h6.38c.92,0,1.65.3,2.19.89.54.59.81,1.39.81,2.38v37.59h46.54"/>
        <path class="cls-1" d="M170.49,97.23c-5.37-18.02-50.9-18.49-29.82-44.13,2.8-2.17,4.81-2.81,8.65-2.48,7.79.38,13.4,6.57,13.19,13.79-.04,3.77,7.1,2.42,9.59,2.91,4.72-.55,1.62-10.63.56-13.69-9.29-23.44-45.6-16.41-46.6,8.67-2.99,21.51,13.49,24.65,29.18,34.12,12.7,6.95,5.88,27.66-9.21,26.1-23.86-.99-8.86-17.62-19.6-17.42-2.62.05-6.97-1.72-7.43,2.22-.38,41.86,64.07,30.45,51.48-10.09Z"/>
      </g>
    </g>
  </g>
</svg>